<?xml version="1.0" encoding="UTF-8"?>
<svg id="Calque_2" data-name="Calque 2" xmlns="http://www.w3.org/2000/svg" viewBox="0 0 285.81 223.02">
  <defs>
    <style>
      .cls-1, .cls-2 {
        fill: #c66822;
      }

      .cls-1, .cls-3, .cls-4 {
        stroke-width: 0px;
      }

      .cls-5, .cls-6, .cls-2, .cls-7, .cls-8, .cls-9 {
        stroke-miterlimit: 10;
      }

      .cls-5, .cls-6, .cls-7, .cls-8, .cls-9 {
        stroke: #e5913e;
      }

      .cls-5, .cls-7 {
        stroke-width: .5px;
      }

      .cls-5, .cls-8, .cls-4, .cls-9 {
        fill: #e5913e;
      }

      .cls-6 {
        fill: none;
      }

      .cls-6, .cls-8 {
        stroke-width: .75px;
      }

      .cls-2 {
        stroke: #c66822;
      }

      .cls-3, .cls-7 {
        fill: #fff;
      }

      .cls-9 {
        stroke-width: .25px;
      }
    </style>
  </defs>
  <g id="Calque_3" data-name="Calque 3">
    <path class="cls-1" d="M30.84,86.69c3.9,13,7.81,25.99,11.71,38.99-.48,2.89-.96,5.78-1.44,8.66-4.97-15.92-9.94-31.84-14.91-47.76,1.55.03,3.1.07,4.64.1Z"/>
    <path class="cls-1" d="M255.74,89.04c-2.72,9.34-5.45,18.67-8.17,28.01.27,3.01.53,6.03.8,9.04,3.73-11.58,7.46-23.15,11.19-34.73-1.27-.77-2.54-1.55-3.82-2.32Z"/>
    <path class="cls-1" d="M230.41,182.67c-2.8,9.6-5.92,19.82-13.17,27.08-7.66,7.67-18.63,9.69-29.09,9.51-12.09-.21-24.13-2.72-36.02-4.75-12.36-2.11-24.81-4.13-37.37-4.35-13.26-.23-26.72,1.52-38.87,7.06-.13.06-.02,1.69-.02,1.88s.14,1.82.02,1.88c22.52-10.26,48.05-7.42,71.69-3.48,12.16,2.03,24.37,4.6,36.7,5.36,10.35.64,21.61-.3,30.11-6.84,9.25-7.11,12.89-18.85,16.02-29.59.34-1.16-.33-2.61,0-3.75h0Z"/>
    <g id="Bouteille">
      <path class="cls-8" d="M205,91.61c9.55-13.13,19.09-26.26,28.64-39.39,3.37-5.09,7.36-8.33,10.23-8.53,1.11-.08,2.29.04,2.29.04,2.38.2,5.02,1.46,5.02,1.46,1.69.81,3.36,1.61,5.1,2.46l19-26c3.33,2.33,6.67,4.67,10,7l-19,26c1.23.94,8.65,6.76,7.46,11.55-.3,1.21-.48,2.2-3.32,6.36-5.93,8.69-12.14,16.09-12.14,16.09,0,0,0,0,0,0,0,0,0,0,0,0-1.95,1.96-1.86,1.92-2,2-1.96,1.11-3.67.32-8.92.63-.55.03-.59.04-1.35.09-.93.05-2.33.12-5.21.18-1.04.02-2.3.07-3.94.18-5.22.34-7.08.56-10.99.81-3.35.21-7.29.45-12.18.14-3.63-.23-6.62-.69-8.69-1.07Z"/>
      <rect class="cls-7" x="231.43" y="59.17" width="31.2" height="19.71" transform="translate(87.17 -131.57) rotate(35.84)"/>
    </g>
    <g id="Bocal">
      <rect class="cls-8" x="75.21" y="32.53" width="57.48" height="10.67" rx="1.81" ry="1.81" transform="translate(-3.4 11.11) rotate(-6.02)"/>
      <path class="cls-8" d="M77.35,83.19l-1.93-18.31c1.49-1.42,4.27-4.46,5.86-9.23,1.43-4.29,1.25-8,1-10,15-1.67,30-3.33,45-5-.16,4.39.96,7.23,2,9,2.53,4.32,7.8,7.82,8,8h0c.8,6.66,1.36,11.71,1.73,15.16.03.29.18,1.72.51,4.81,0,.04,1.1,10.42,1.1,10.46l-23.55-4.12c-10.5-.38-21-.77-31.5-1.15"/>
      <rect class="cls-7" x="84.27" y="63.56" width="45.98" height="11.5" rx="1.7" ry="1.7" transform="translate(-6.68 11.63) rotate(-6.02)"/>
    </g>
    <g id="Feuille_2" data-name="Feuille 2">
      <path class="cls-5" d="M22.1,57.22h0c-1.2-1.27-2.85-2.69-5-3.83-7.38-3.91-14.86-1.44-16.67-.79H.44c1.26,1.39,3.26,3.21,6.09,4.53,7.25,3.37,14.09.7,15.57.08h0Z"/>
      <path class="cls-5" d="M29.12,54.48h0c1.3-1.18,2.74-2.79,3.93-4.92,4.06-7.3,1.75-14.83,1.13-16.65h0c-1.42,1.23-3.28,3.19-4.65,6-3.51,7.18-.99,14.07-.4,15.57h0Z"/>
      <path class="cls-5" d="M31.11,67.24h0c-.7-.9-1.68-1.94-3.01-2.84-4.57-3.11-9.66-2.24-10.89-2h0c.73.98,1.91,2.3,3.68,3.38,4.52,2.76,9.21,1.71,10.23,1.46h0Z"/>
      <path class="cls-5" d="M36.15,65.38h0c.78-.83,1.65-1.96,2.34-3.41,2.36-5,.71-9.89.27-11.07h0c-.86.87-1.98,2.24-2.77,4.16-2.02,4.89-.25,9.36.16,10.33h0Z"/>
      <path class="cls-5" d="M39.02,76.73h0c-.7-.9-1.68-1.94-3.01-2.84-4.57-3.11-9.66-2.24-10.89-2h0c.73.98,1.91,2.3,3.68,3.38,4.52,2.76,9.21,1.71,10.23,1.46h0Z"/>
      <path class="cls-5" d="M38.7,76.57c1.82,1.1,3.65,2.2,5.47,3.29"/>
      <path class="cls-5" d="M47.4,68c-.16,1.24-.5,2.57-1.12,3.89-.65,1.37-1.46,2.46-2.22,3.28-.05.05-.08.09-.13.14-.4-.97-2.18-5.43-.16-10.33.09-.22.18-.42.29-.62.84,1.25,1.94,2.52,3.34,3.64Z"/>
      <path class="cls-5" d="M44.05,74.96c.04,1.63.08,3.27.12,4.9"/>
      <path class="cls-5" d="M23.45,52.71h0c-.06-2.11-.39-4.71-1.41-7.47-3.48-9.46-12.18-13.27-14.33-14.14h0c.01,2.27.34,5.51,1.82,8.98,3.8,8.86,12.09,11.99,13.92,12.63h0Z"/>
      <path class="cls-5" d="M23.15,52.12c7.99,10.62,15.98,21.24,23.98,31.86"/>
      <line class="cls-5" x1="29.12" y1="54.48" x2="28.9" y2="59.63"/>
      <line class="cls-5" x1="22.1" y1="57.22" x2="27.34" y2="57.69"/>
      <line class="cls-9" x1="31.11" y1="67.24" x2="35.01" y2="67.79"/>
      <line class="cls-9" x1="36.15" y1="65.38" x2="36.01" y2="69.22"/>
    </g>
    <g id="Feuille_1" data-name="Feuille 1">
      <path class="cls-5" d="M63.55,37.26h0c.31-2.15.96-4.77,2.33-7.46,4.69-9.25,14.04-12.11,16.34-12.74h0c-.28,2.31-1,5.59-2.94,8.96-4.94,8.61-13.79,10.81-15.74,11.24h0Z"/>
      <path class="cls-5" d="M54.47,39.51h0c-2.16-.27-4.78-.87-7.51-2.18-9.35-4.5-12.39-13.79-13.07-16.08h0c2.32.24,5.61.89,9.02,2.75,8.71,4.76,11.09,13.57,11.56,15.5h0Z"/>
      <path class="cls-5" d="M61.59,53.88h0c.06-1.42.31-3.17,1.02-5.04,2.41-6.43,8.19-9.19,9.62-9.83h0c-.03,1.52-.29,3.7-1.31,6.06-2.61,6.03-8.12,8.33-9.33,8.8h0Z"/>
      <path class="cls-5" d="M55.14,55.61h0c-1.39-.28-3.08-.8-4.82-1.79-5.97-3.38-7.8-9.53-8.21-11.04h0c1.5.27,3.61.86,5.79,2.24,5.55,3.52,6.96,9.32,7.24,10.59h0Z"/>
      <path class="cls-5" d="M60.36,69.18h0c.06-1.42.31-3.17,1.02-5.04,2.41-6.43,8.19-9.19,9.62-9.83h0c-.03,1.52-.29,3.7-1.31,6.06-2.61,6.03-8.12,8.33-9.33,8.8h0Z"/>
      <path class="cls-5" d="M60.57,68.78c-1.06,2.42-2.13,4.84-3.19,7.26"/>
      <path class="cls-5" d="M47.4,68c.65.53,1.36,1.01,2.15,1.46,1.65.95,3.27,1.48,4.61,1.75l.2.04c-.27-1.27-1.68-7.06-7.23-10.59-2.18-1.37-4.29-1.96-5.79-2.23.23.88.97,3.35,2.74,5.92"/>
      <path class="cls-5" d="M53.99,70.98c1.13,1.68,2.26,3.37,3.39,5.05"/>
      <path class="cls-5" d="M58.95,33.65h0c-1.46-2.18-2.98-5.06-3.92-8.58-3.24-12.09,2.85-22.19,4.41-24.62h0c1.61,2.31,3.61,5.83,4.59,10.42,2.5,11.71-3.68,20.83-5.07,22.78h0Z"/>
      <path class="cls-5" d="M58.84,32.83c-.5,16.5-1,33-1.5,49.5"/>
      <line class="cls-5" x1="54.47" y1="39.51" x2="58.38" y2="44.58"/>
      <line class="cls-5" x1="63.55" y1="37.26" x2="58.58" y2="41.48"/>
      <line class="cls-5" x1="61.59" y1="53.88" x2="58.13" y2="58.44"/>
      <line class="cls-5" x1="55.14" y1="55.61" x2="58.09" y2="57.58"/>
    </g>
    <g id="Tomate">
      <path class="cls-6" d="M195.97,61.93s14.78.37,19.44,19.03"/>
      <path class="cls-6" d="M173.09,59.23s-8.95-3.06-20.34,10.79"/>
      <g id="Feuille_tomate" data-name="Feuille tomate">
        <g>
          <g>
            <path class="cls-3" d="M182.51,58.48c2.29-2.64,2.69-6.37,3.14-9.83s1.22-7.23,3.91-9.45"/>
            <path class="cls-4" d="M182.78,58.75c4.6-5.51,1.42-14.46,7.05-19.28.37-.31-.17-.84-.53-.53-5.73,4.91-2.45,13.78-7.05,19.28-.31.37.22.9.53.53h0Z"/>
          </g>
          <g>
            <path class="cls-3" d="M189.85,39.1c1.32.37,2.47,1.29,3.14,2.48"/>
            <path class="cls-4" d="M189.75,39.46c1.23.36,2.28,1.19,2.91,2.31.24.42.89.04.65-.38-.72-1.28-1.95-2.24-3.36-2.65-.46-.13-.66.59-.2.72h0Z"/>
          </g>
          <g>
            <path class="cls-3" d="M193.11,42.53c-1.59.15-2.54,1.81-3.07,3.31-1.4,3.96-1.77,8.28-1.05,12.43"/>
            <path class="cls-4" d="M193.01,42.16c-2.76.39-3.62,4.09-4.12,6.33-.73,3.25-.8,6.59-.26,9.87.08.48.8.27.72-.2-.49-2.95-.45-5.98.14-8.91.42-2.09,1.12-6,3.72-6.36.48-.07.27-.79-.2-.72h0Z"/>
          </g>
          <g>
            <path class="cls-3" d="M183.66,54.25c-1.4-3.69-4.98-6.46-8.91-6.88"/>
            <path class="cls-4" d="M184.03,54.15c-1.5-3.88-5.14-6.68-9.27-7.16-.48-.06-.47.7,0,.75,3.77.43,7.18,3.07,8.55,6.61.17.45.9.25.72-.2h0Z"/>
          </g>
          <g>
            <path class="cls-3" d="M174.42,47.39c2.36,3.16,4.52,6.48,6.45,9.92"/>
            <path class="cls-4" d="M174.09,47.58c2.36,3.16,4.51,6.48,6.45,9.92.24.42.88.04.65-.38-1.94-3.44-4.09-6.75-6.45-9.92-.29-.38-.94,0-.65.38h0Z"/>
          </g>
          <g>
            <path class="cls-3" d="M181.03,57.46c-2.32-2.43-5.87-3.14-9.2-3.62s-6.86-.93-9.47-3.04"/>
            <path class="cls-4" d="M181.29,57.2c-5.03-5.09-13.24-2.41-18.67-6.66-.38-.29-.91.23-.53.53,5.43,4.25,13.72,1.64,18.67,6.66.34.34.87-.19.53-.53h0Z"/>
          </g>
          <g>
            <path class="cls-3" d="M161.83,51.08c-.26,2.58,1.51,5.04,3.76,6.32s4.91,1.62,7.5,1.82c2.59.2,5.23.31,7.66,1.2"/>
            <path class="cls-4" d="M161.46,51.08c-.28,3.73,2.82,6.51,6.1,7.59,4.25,1.39,8.87.63,13.1,2.12.46.16.65-.56.2-.72-3.73-1.31-7.72-.89-11.54-1.71-3.52-.75-7.41-3.18-7.11-7.28.04-.48-.71-.48-.75,0h0Z"/>
          </g>
          <g>
            <path class="cls-3" d="M181.06,60.79c-1.96-.85-4.29-.34-6.11.79s-3.23,2.79-4.63,4.4c-1.4,1.61-2.87,3.24-4.75,4.25"/>
            <path class="cls-4" d="M181.16,60.43c-3-1.22-6.15.3-8.37,2.34-2.53,2.33-4.34,5.42-7.41,7.12-.42.23-.04.88.38.65,2.73-1.51,4.5-4.09,6.61-6.3s5.33-4.41,8.59-3.09c.45.18.64-.54.2-.72h0Z"/>
          </g>
          <g>
            <path class="cls-3" d="M165.12,70.64c4.72.03,9.41-1.85,12.82-5.11,1.11-1.06,2.08-2.26,3.27-3.23s2.67-1.69,4.2-1.58"/>
            <path class="cls-4" d="M165.12,71.01c3.7-.01,7.35-1.08,10.44-3.12,1.55-1.02,2.85-2.29,4.13-3.63,1.55-1.62,3.33-3.26,5.73-3.18.48.02.48-.73,0-.75-4.02-.13-6.19,3.79-8.98,6-3.2,2.54-7.24,3.9-11.32,3.92-.48,0-.48.75,0,.75h0Z"/>
          </g>
          <g>
            <path class="cls-3" d="M189.59,54.42c1.46-1.81,3.48-3.15,5.72-3.78s4.66-.55,6.85.23"/>
            <path class="cls-4" d="M189.86,54.69c2.95-3.6,7.79-4.98,12.2-3.46.46.16.65-.57.2-.72-4.63-1.6-9.82-.14-12.93,3.65-.3.37.22.9.53.53h0Z"/>
          </g>
          <g>
            <path class="cls-3" d="M202.64,50.86c-4.15,1.76-7.87,4.53-10.75,8"/>
            <path class="cls-4" d="M202.45,50.53c-4.18,1.79-7.91,4.56-10.83,8.06-.31.37.22.9.53.53,2.88-3.45,6.54-6.17,10.68-7.94.44-.19.06-.84-.38-.65h0Z"/>
          </g>
          <g>
            <path class="cls-3" d="M193.75,57.98c2.39-.12,4.69-.94,6.94-1.78,2.25-.84,4.51-1.71,6.9-1.95s4.95.23,6.75,1.81"/>
            <path class="cls-4" d="M193.75,58.36c3.55-.24,6.73-1.8,10.07-2.88s7.33-1.57,10.25.85c.37.31.9-.22.53-.53-6.33-5.25-14.14,1.35-20.85,1.81-.48.03-.48.78,0,.75h0Z"/>
          </g>
          <g>
            <path class="cls-3" d="M214.61,56.27c-1.8-1.04-4.12-.57-5.94.42s-3.37,2.44-5.17,3.47c-3.22,1.82-7.25,2.14-10.71.86"/>
            <path class="cls-4" d="M214.8,55.95c-3.57-1.88-7,.79-9.81,2.79-3.59,2.56-7.9,3.41-12.12,1.92-.46-.16-.65.56-.2.72,3.43,1.21,7.27,1.01,10.53-.65s7.06-6.33,11.21-4.14c.43.22.81-.42.38-.65h0Z"/>
          </g>
          <g>
            <path class="cls-3" d="M194.77,61.43c-.21,2.06.95,4.06,2.53,5.4s3.55,2.11,5.47,2.86"/>
            <path class="cls-4" d="M194.4,61.43c-.19,2.08.89,4.07,2.4,5.45,1.67,1.52,3.81,2.36,5.88,3.17.45.18.64-.55.2-.72-1.91-.75-3.9-1.52-5.45-2.89-1.43-1.26-2.45-3.06-2.28-5,.04-.48-.71-.48-.75,0h0Z"/>
          </g>
          <g>
            <path class="cls-3" d="M203.13,69.67c-7.26.09-14.49-3.23-19.16-8.8"/>
            <path class="cls-4" d="M203.13,69.3c-7.22.04-14.22-3.19-18.89-8.69-.31-.37-.84.16-.53.53,4.8,5.65,12.02,8.95,19.42,8.91.48,0,.48-.75,0-.75h0Z"/>
          </g>
        </g>
        <g>
          <path class="cls-4" d="M190.66,41.01l-.85.72c-.07.07-.12.15-.16.24-.05.09-.07.19-.06.29,0,.1.02.2.06.29.03.09.08.17.16.24.14.13.33.23.53.22l.2-.03c.13-.04.24-.1.33-.19l.85-.72c.07-.07.12-.15.16-.24.05-.09.07-.19.06-.29,0-.1-.02-.2-.06-.29-.03-.09-.08-.17-.16-.24-.14-.13-.33-.23-.53-.22l-.2.03c-.13.04-.24.1-.33.19h0Z"/>
          <path class="cls-4" d="M191.55,41.34c-1.33.17-2.57.71-3.55,1.64-.93.88-1.57,2.08-1.78,3.34-.07.39.1.83.52.92.36.08.85-.11.92-.52.05-.27.11-.54.19-.8.02-.07.05-.14.07-.21,0-.02.07-.19.05-.12s.05-.1.05-.11c.03-.07.07-.13.1-.2.27-.52.49-.81.88-1.19.1-.1.2-.19.3-.27.01-.01.16-.12.1-.08s.09-.06.1-.07c.22-.16.46-.3.71-.42.06-.03.11-.05.17-.08.07-.03-.06.02.06-.03.14-.05.28-.1.42-.15.12-.04.24-.07.36-.09.07-.02.15-.03.22-.04.03,0,.24-.04.1-.02.39-.05.77-.31.75-.75-.02-.36-.33-.8-.75-.75h0Z"/>
          <path class="cls-4" d="M188.06,42.75c-.37,1.7-.74,3.4-1.11,5.1-.09.4.12.81.52.92.37.1.84-.13.92-.52.37-1.7.74-3.4,1.11-5.1.09-.4-.12-.81-.52-.92-.37-.1-.84.13-.92.52h0Z"/>
          <path class="cls-4" d="M189.04,43.56c-.13.36-.26.68-.37.92-.15.35-.32.7-.5,1.04-.35.67-.73,1.32-1.16,1.94-.22.33-.07.85.27,1.03.38.2.79.08,1.03-.27.9-1.33,1.62-2.76,2.17-4.26.14-.37-.15-.84-.52-.92-.42-.1-.78.13-.92.52h0Z"/>
          <path class="cls-4" d="M186.84,45.79l-1.4,7.35c-.15.77,1.02,1.41,1.37.58.53-1.24,1.05-2.48,1.58-3.72l-1.4-.38c-.33,2.65-.66,5.29-.99,7.94-.05.41.38.75.75.75.45,0,.7-.35.75-.75.33-2.65.66-5.29.99-7.94.09-.72-1.11-1.05-1.4-.38-.53,1.24-1.05,2.48-1.58,3.72l1.37.58c.47-2.45.94-4.9,1.4-7.35.18-.94-1.27-1.35-1.45-.4h0Z"/>
          <path class="cls-4" d="M189.63,56.94c2.88-2.25,6.05-5.37,10-5l-.38-1.4c-3.99,2.33-8.06,4.81-10.55,8.82-.36.59.23,1.23.85,1.1,1.68-.36,3.47-.21,5.18-.52s3.36-.79,5.02-1.25c3.53-.99,7.05-1.97,10.58-2.96l-.4-1.45c-3,.91-5.5,2.81-8.35,4.05-3.2,1.39-6.78,1.56-10.12.59-.93-.27-1.33,1.18-.4,1.45,3.3.96,6.87.91,10.11-.26s5.89-3.38,9.16-4.37c.92-.28.54-1.71-.4-1.45-3.53.99-7.05,1.97-10.58,2.96-1.66.46-3.32.94-5.02,1.25s-3.49.16-5.18.52l.85,1.1c2.35-3.79,6.26-6.09,10.01-8.28.69-.4.33-1.33-.38-1.4-4.38-.42-7.86,2.95-11.06,5.44-.76.59.31,1.65,1.06,1.06h0Z"/>
          <path class="cls-4" d="M192.24,42.55c.97,0,.97-1.5,0-1.5s-.97,1.5,0,1.5h0Z"/>
          <path class="cls-4" d="M192.29,42.68c.97,0,.97-1.5,0-1.5s-.97,1.5,0,1.5h0Z"/>
          <path class="cls-4" d="M185.73,53.94c-.2.45-.34.9-.48,1.37-.07.22-.13.43-.21.64-.02.05-.03.11-.06.15.09-.16,0-.02-.01.02-.05.11-.1.21-.16.31-.03.05-.06.09-.09.13-.01.02-.03.04-.05.06.06-.08.07-.09.04-.05-.04.04-.07.08-.11.12-.02.02-.15.14-.06.06s-.05.03-.07.05c-.04.03-.09.05-.14.08-.02.01-.19.08-.08.04s-.06.02-.08.03c-.41.14-.84.2-1.26.3-.38.09-.65.55-.52.92.13.4.51.62.92.52.44-.11.91-.17,1.34-.33.57-.22,1.02-.54,1.37-1.05.29-.42.46-.92.62-1.4.07-.23.14-.47.21-.7.03-.1.07-.21.1-.31.02-.05.04-.1.06-.15.01-.03.03-.07.04-.1-.04.1-.05.11-.01.04.16-.36.12-.82-.27-1.03-.32-.17-.86-.11-1.03.27h0Z"/>
          <path class="cls-4" d="M184.46,55.7c-2.93-2.23-3.59-7.06-7.79-7.64-.56-.08-1.29.51-.85,1.1,1.59,2.15,3.17,4.3,4.76,6.45.33.45.9.97,1.1,1.49.24.17.25.28.03.34-.15.14-.29.11-.43-.08-.23-.08-.45-.26-.66-.37-1.06-.57-2.17-1.07-3.3-1.47-2.3-.82-4.66-1.13-7.07-1.43s-5.01-.83-6.81-2.67c-.37-.38-1.15-.24-1.25.33-.68,3.86,3.62,4.79,6.46,5.29,4.2.73,8.4,1.46,12.59,2.19l.2-1.47c-4.61-.62-9.23-1.24-13.84-1.85-.9-.12-.91,1.19-.2,1.47,2.54,1,5.23,1.44,7.92,1.86,2.85.44,5.71.88,8.56,1.32v-1.45c-4.95.88-10.6,2.28-12.59,7.5-.34.9,1.11,1.29,1.45.4,1.76-4.63,7.24-5.69,11.54-6.46.71-.13.72-1.33,0-1.45-2.85-.44-5.71-.88-8.56-1.32-2.69-.41-5.38-.86-7.92-1.86l-.2,1.47c4.61.62,9.23,1.24,13.84,1.85.83.11,1.03-1.33.2-1.47-3.37-.59-6.74-1.17-10.12-1.76-1.59-.28-3.2-.49-4.77-.86-1.41-.33-3.44-1.21-3.13-3.02l-1.25.33c1.99,2.03,4.74,2.69,7.47,3.05,3.33.44,6.48.94,9.51,2.49.98.5,2.14,1.52,3.31,1,1.01-.45.99-1.59.49-2.42-.81-1.37-1.92-2.62-2.86-3.9-1.06-1.43-2.12-2.87-3.17-4.3l-.85,1.1c2.03.28,3.23,1.95,4.24,3.57.91,1.46,1.8,2.86,3.19,3.92.77.58,1.52-.72.76-1.3h0Z"/>
          <path class="cls-4" d="M168.24,70.28l1.98-.9c.16-.07.3-.29.34-.45.05-.18.03-.42-.08-.58s-.26-.3-.45-.34l-.2-.03c-.14,0-.26.03-.38.1l-1.98.9c-.16.07-.3.29-.34.45-.05.18-.03.42.08.58s.26.3.45.34l.2.03c.14,0,.26-.03.38-.1h0Z"/>
          <path class="cls-4" d="M167.49,70.61c.97,0,.97-1.5,0-1.5s-.97,1.5,0,1.5h0Z"/>
          <path class="cls-4" d="M169.57,69.63c1.5-.51,2.86-1.43,3.85-2.67.13-.16.22-.31.22-.53,0-.18-.08-.4-.22-.53-.27-.25-.8-.33-1.06,0-.22.27-.45.53-.7.78-.13.12-.26.24-.4.36-.04.03-.07.06-.11.09-.01.01-.12.09-.04.03.09-.07-.04.03-.06.04-.04.03-.08.06-.12.08-.29.2-.59.38-.9.54-.08.04-.15.08-.23.11-.05.02-.18.11-.23.11.08-.03.1-.04.05-.02-.02,0-.03.01-.05.02-.04.02-.09.03-.13.05-.09.03-.18.07-.27.1-.37.13-.65.52-.52.92.12.37.52.66.92.52h0Z"/>
          <path class="cls-4" d="M170.4,68.42l1.96-1.16c.34-.2.49-.68.27-1.03s-.67-.48-1.03-.27l-1.96,1.16c-.34.2-.49.68-.27,1.03s.67.48,1.03.27h0Z"/>
          <path class="cls-4" d="M171.26,68.63c2.69-.67,4.23-3.04,5.95-5,.43-.49.89-.96,1.39-1.38.25-.2.52-.38.8-.54.16-.09.6-.37.72-.35-.09,0,0-.06-.06.02-.07.08-.12.2-.2.29-.23.27-.5.51-.76.75-.51.48-1.05.94-1.62,1.36-1.27.94-2.65,1.74-4.11,2.35-.37.16-.64.5-.52.92.1.35.55.68.92.52,1.53-.64,2.99-1.43,4.33-2.4.7-.51,1.36-1.05,2-1.63.58-.54,1.3-1.13,1.44-1.95s-.34-1.56-1.16-1.68c-.78-.11-1.58.38-2.2.81-1.34.92-2.32,2.2-3.35,3.44s-2.29,2.62-3.98,3.04c-.94.23-.54,1.68.4,1.45h0Z"/>
          <path class="cls-4" d="M184.32,60.79c2.47,1.83,4.93,3.65,7.4,5.48.6.44,1.45-.43,1.03-1.03-2.25-3.12-5.09-5.76-8.38-7.75l-.58,1.37c.75.26,1.51.53,2.26.79.71.25,1.49.58,2.2.16.55-.33.85-1.03.68-1.65-.18-.68-.78-1.06-1.45-1.12-.4-.03-.76.37-.75.75.04,1.36.77,2.69,2,3.34.69.36,1.45.47,2.17.73.54.19,1.04.49,1.14,1.09.07.46.73.7,1.1.45.15-.1.3-.2.44-.3l-1.1-.45c.34,1.25.68,2.49,1.02,3.74.25.93,1.7.54,1.45-.4-.34-1.25-.68-2.49-1.02-3.74-.12-.44-.7-.72-1.1-.45-.15.1-.3.2-.44.3l1.1.45c-.22-1.41-1.64-2.01-2.86-2.33-.62-.17-1.24-.33-1.71-.8-.43-.44-.67-1.02-.69-1.63l-.75.75s.07-.02-.12-.03c-.33-.03-.7-.23-1.01-.34-.72-.25-1.44-.51-2.17-.76-.82-.29-1.29.94-.58,1.37,3.07,1.85,5.75,4.3,7.85,7.21l1.03-1.03c-2.47-1.83-4.93-3.65-7.4-5.48-.33-.24-.83-.05-1.03.27-.23.38-.05.79.27,1.03h0Z"/>
          <path class="cls-4" d="M191.65,64.44l1.33,1.78c.12.16.25.29.45.34.18.05.42.03.58-.08s.3-.26.34-.45.04-.42-.08-.58l-1.33-1.78c-.12-.16-.25-.29-.45-.34-.18-.05-.42-.03-.58.08s-.3.26-.34.45-.04.42.08.58h0Z"/>
          <path class="cls-4" d="M190.83,63.83l1.34,1.93c.11.16.25.29.45.34.18.05.42.03.58-.08s.3-.26.34-.45.04-.41-.08-.58l-1.34-1.93c-.11-.16-.25-.29-.45-.34-.18-.05-.42-.03-.58.08s-.3.26-.34.45-.04.41.08.58h0Z"/>
          <path class="cls-4" d="M190.29,65.82c1.31,1.22,2.97,2.07,4.75,2.36.39.06.83-.1.92-.52.08-.36-.11-.86-.52-.92s-.79-.16-1.18-.28c-.19-.06-.37-.12-.55-.2-.01,0-.14-.06-.08-.03s-.07-.03-.08-.03c-.1-.04-.2-.09-.3-.14-.35-.17-.69-.37-1.01-.59-.08-.05-.16-.11-.24-.17-.01,0-.16-.12-.1-.07.05.04-.06-.05-.07-.05-.16-.13-.32-.27-.47-.41-.29-.27-.78-.31-1.06,0s-.31.77,0,1.06h0Z"/>
          <path class="cls-4" d="M195.07,66.06l1.39,1.61c.13.15.4.14.53,0,.15-.16.14-.37,0-.53l-1.39-1.61c-.13-.15-.4-.14-.53,0-.15.16-.14.37,0,.53h0Z"/>
          <path class="cls-4" d="M195.34,66.98c.81.53,1.7.94,2.63,1.2.19.06.41-.07.46-.26s-.07-.41-.26-.46c-.88-.25-1.68-.62-2.45-1.13-.17-.11-.41-.03-.51.13-.11.18-.03.4.13.51h0Z"/>
          <path class="cls-4" d="M196.75,67.36l2.06,1.2c.17.1.42.04.51-.13s.05-.41-.13-.51l-2.06-1.2c-.17-.1-.42-.04-.51.13s-.05.41.13.51h0Z"/>
          <path class="cls-4" d="M196.11,68.14c.61.22,1.23.38,1.87.49.19.03.41-.05.46-.26.04-.18-.05-.43-.26-.46-.64-.1-1.26-.27-1.87-.49-.18-.07-.42.08-.46.26-.05.21.06.39.26.46h0Z"/>
          <path class="cls-4" d="M197.01,68.36l2.65.65c.2.05.41-.06.46-.26s-.06-.41-.26-.46l-2.65-.65c-.2-.05-.41.06-.46.26s.06.41.26.46h0Z"/>
          <path class="cls-4" d="M201.73,69.05l-2.64-.68c-.2-.05-.41.06-.46.26s.06.41.26.46l2.64.68c.2.05.41-.06.46-.26s-.06-.41-.26-.46h0Z"/>
          <path class="cls-4" d="M199.66,69.07c.28.14.55.29.8.47.07.05.2.06.29.04s.18-.09.22-.17c.05-.09.07-.19.04-.29l-.04-.09c-.03-.06-.08-.1-.13-.13-.25-.18-.52-.34-.8-.47-.09-.04-.19-.07-.29-.04-.09.02-.18.09-.22.17-.05.09-.07.19-.04.29.03.09.09.18.17.22h0Z"/>
          <path class="cls-4" d="M192.52,42.79c.97,0,.97-1.5,0-1.5s-.97,1.5,0,1.5h0Z"/>
          <path class="cls-4" d="M192.54,42.82c.97,0,.97-1.5,0-1.5s-.97,1.5,0,1.5h0Z"/>
          <path class="cls-4" d="M192.62,42.85c.97,0,.97-1.5,0-1.5s-.97,1.5,0,1.5h0Z"/>
          <path class="cls-4" d="M191.61,41.59l-.67.4c-.09.05-.16.11-.21.19-.07.07-.11.16-.13.26-.03.1-.04.2-.01.3,0,.1.03.19.09.28l.12.15c.09.09.2.16.33.19l.2.03c.14,0,.26-.03.38-.1l.67-.4c.09-.05.16-.11.21-.19.07-.07.11-.16.13-.26.03-.1.04-.2.01-.3,0-.1-.03-.19-.09-.28l-.12-.15c-.09-.09-.2-.16-.33-.19l-.2-.03c-.14,0-.26.03-.38.1h0Z"/>
          <path class="cls-4" d="M191.92,41.61c-.62.19-1.19.53-1.65,1-.14.14-.22.34-.22.53,0,.18.08.4.22.53s.33.23.53.22.39-.08.53-.22c.1-.1.21-.2.33-.29l-.15.12c.22-.16.45-.3.7-.41l-.18.08c.09-.04.19-.07.29-.11.18-.06.35-.18.45-.34s.13-.4.08-.58-.17-.36-.34-.45-.38-.14-.58-.08h0Z"/>
          <path class="cls-4" d="M192.17,41.5l-.29.06c-.1.02-.18.07-.26.13-.08.05-.15.12-.19.21-.05.09-.08.18-.09.28-.02.1-.02.2.01.3l.08.18c.07.11.16.2.27.27l.18.08c.13.04.27.04.4,0l.29-.06c.1-.02.18-.07.26-.13.08-.05.15-.12.19-.21.05-.09.08-.18.09-.28.02-.1.02-.2-.01-.3l-.08-.18c-.07-.11-.16-.2-.27-.27l-.18-.08c-.13-.04-.27-.04-.4,0h0Z"/>
          <path class="cls-4" d="M192.79,41.16l-.1-.06c-.09-.05-.18-.08-.28-.09-.1-.02-.2-.02-.3.01-.1.02-.18.07-.26.13-.08.05-.15.12-.19.21l-.08.18c-.04.13-.04.27,0,.4l.08.18c.07.11.16.2.27.27l.1.06c.09.05.18.08.28.09.1.02.2.02.3-.01.1-.02.18-.07.26-.13.08-.05.15-.12.19-.21l.08-.18c.04-.13.04-.27,0-.4l-.08-.18c-.07-.11-.16-.2-.27-.27h0Z"/>
          <path class="cls-4" d="M192.49,42.55c.97,0,.97-1.5,0-1.5s-.97,1.5,0,1.5h0Z"/>
          <path class="cls-4" d="M193.14,41.99c.01-.07.03-.16.03-.24,0,0,0,0,0-.01,0-.06-.02-.14-.03-.21,0,0,0-.02,0-.02s0-.02,0-.02c-.01-.03-.03-.07-.04-.1s-.03-.07-.04-.1c-.03-.07-.11-.15-.14-.19,0-.01-.02-.02-.03-.03-.05-.04-.11-.08-.16-.12,0,0,0,0,0,0,0,0-.02,0-.02-.01-.03-.02-.07-.03-.1-.05l.15.12s-.02-.02-.02-.02l.12.15s-.01-.02-.01-.02l.08.18s0-.01,0-.02l.03.2s0-.01,0-.02l-.03.2s0,0,0-.01c.03-.1.04-.2.01-.3,0-.1-.03-.19-.09-.28-.05-.09-.11-.16-.19-.21-.07-.07-.16-.11-.26-.13l-.2-.03c-.14,0-.26.03-.38.1l-.15.12c-.09.09-.16.2-.19.33-.02.07-.04.15-.03.23.02.19.03.23.11.4.03.06.11.15.13.18.03.03.07.06.1.08.05.04.09.07.14.09.02.01.05.02.07.04l-.15-.12s.03.02.04.04l-.12-.15s.02.03.03.05l-.08-.18s.01.04.02.06l-.03-.2s0,.04,0,.05l.03-.2h0c-.03.11-.04.2-.01.3,0,.1.03.19.09.28.05.09.11.16.19.21.07.07.16.11.26.13l.2.03c.14,0,.26-.03.38-.1l.15-.12c.09-.09.16-.2.19-.33h0Z"/>
        </g>
        <g>
          <path class="cls-4" d="M188.53,40.46l-1.5,3.68c-.14.34-.02.86.15,1.16s.54.61.9.69c.38.09.81.07,1.16-.15l.3-.23c.19-.19.31-.41.39-.66.5-1.23,1-2.45,1.5-3.68.14-.34.02-.86-.15-1.16s-.54-.61-.9-.69c-.38-.09-.81-.07-1.16.15l-.3.23c-.19.19-.31.41-.39.66h0Z"/>
          <path class="cls-4" d="M189.75,40.38l-2.1,2.57c-.15.14-.25.3-.31.48-.09.18-.14.37-.13.58,0,.37.16.81.44,1.06s.66.46,1.06.44c.37-.02.81-.14,1.06-.44l2.1-2.57c.15-.14.25-.3.31-.48.09-.18.14-.37.13-.58,0-.37-.16-.81-.44-1.06s-.66-.46-1.06-.44c-.37.02-.81.14-1.06.44h0Z"/>
          <path class="cls-4" d="M187.3,41.79l-.82,3.2c-.1.38-.05.81.15,1.16.18.31.54.61.9.69.38.09.81.07,1.16-.15s.59-.51.69-.9l.82-3.2c.1-.38.05-.81-.15-1.16-.18-.31-.54-.61-.9-.69-.38-.09-.81-.07-1.16.15s-.59.51-.69.9h0Z"/>
          <path class="cls-4" d="M186.74,44.14c-.52,1.99-.82,4.04-.91,6.09-.04.78.72,1.54,1.5,1.5.84-.04,1.46-.66,1.5-1.5.02-.47.05-.94.1-1.41.02-.23.05-.47.08-.7.05-.4-.04.23.01-.09.02-.11.03-.22.05-.32.14-.93.34-1.86.57-2.77.2-.76-.25-1.66-1.05-1.85s-1.63.24-1.85,1.05h0Z"/>
          <path class="cls-4" d="M187.09,45.15c-.36,1.03-.73,2.06-1.09,3.1-.12.35-.03.84.15,1.16s.54.61.9.69c.38.09.81.07,1.16-.15s.55-.51.69-.9c.36-1.03.73-2.06,1.09-3.1.12-.35.03-.84-.15-1.16s-.54-.61-.9-.69c-.38-.09-.81-.07-1.16.15s-.55.51-.69.9h0Z"/>
          <path class="cls-4" d="M185.87,48.64c-.51,2.85-1.01,5.71-1.52,8.56-.14.77.21,1.65,1.05,1.85.73.17,1.7-.22,1.85-1.05.51-2.85,1.01-5.71,1.52-8.56.14-.77-.21-1.65-1.05-1.85-.73-.17-1.7.22-1.85,1.05h0Z"/>
          <path class="cls-4" d="M185.72,52.02c-.68,2-.69,4.23-.03,6.23.2.61.77,1.13,1.45,1.1.62-.03,1.32-.44,1.45-1.1l.28-1.45-2.89-.8-.07.5c-.14.94.38,1.9,1.45,1.9,2.07-.01,3.24-1.64,4.69-2.84.02-.02.23-.19.13-.11-.11.09.2-.15.2-.14.18-.13.36-.25.54-.36.37-.23.75-.44,1.14-.63.09-.04.17-.08.26-.12.08-.04.3-.13.11-.05.2-.08.4-.16.61-.23.43-.15.88-.27,1.32-.37l-1.69-2.2c-.2.43-.45.82-.71,1.21-.18.26.17-.19-.05.07-.06.08-.12.15-.19.23-.14.16-.29.32-.44.48-.65.68-1.36,1.29-2.06,1.92-1.52,1.35-2.88,2.78-3.62,4.7-.28.73.31,1.68,1.05,1.85.86.2,1.54-.26,1.85-1.05.14-.37-.14.28.03-.07.05-.1.1-.21.16-.31.1-.19.21-.37.33-.55.05-.08.11-.16.16-.24.08-.12.2-.26.04-.07.15-.18.3-.36.46-.53.6-.66,1.28-1.26,1.95-1.85,1.4-1.24,2.84-2.55,3.65-4.27.26-.56.28-1.15-.12-1.67s-.98-.67-1.58-.54c-1.74.38-3.44,1.13-4.87,2.2-.73.54-1.37,1.15-2.03,1.77-.15.14-.31.27-.45.41-.16.15.17-.11-.01.01-.07.05-.14.1-.22.15-.09.06-.18.11-.28.16-.15.08-.11.02.01,0-.04,0-.37.12-.17.06.18-.05-.15,0-.18,0l1.45,1.9.07-.5c.12-.77-.19-1.65-1.05-1.85-.74-.17-1.69.22-1.85,1.05l-.28,1.45h2.89c-.13-.4-.23-.81-.31-1.22-.01-.07-.04-.24-.01-.07-.01-.1-.02-.21-.03-.31-.02-.24-.03-.47-.03-.71,0-.21.01-.42.03-.63,0-.03.03-.31.02-.19s.03-.16.03-.19c.08-.44.19-.87.34-1.3.25-.74-.29-1.67-1.05-1.85-.83-.19-1.57.25-1.85,1.05h0Z"/>
          <path class="cls-4" d="M191.93,61.33c1.14-.05,2.28-.11,3.42-.16.4-.02.78-.15,1.06-.44.26-.26.46-.69.44-1.06s-.14-.79-.44-1.06-.66-.46-1.06-.44c-1.14.05-2.28.11-3.42.16-.4.02-.78.15-1.06.44-.26.26-.46.69-.44,1.06s.14.79.44,1.06.66.46,1.06.44h0Z"/>
          <path class="cls-4" d="M191.68,60.65c4.54.57,9.18-.33,13.22-2.45,1.49-.78.46-3.31-1.16-2.74-2.07.73-4.14,1.46-6.22,2.19-.76.27-1.27,1.03-1.05,1.85.2.74,1.08,1.32,1.85,1.05,2.07-.73,4.14-1.46,6.22-2.19l-1.16-2.74c-3.6,1.88-7.69,2.54-11.71,2.04-.81-.1-1.5.76-1.5,1.5,0,.89.69,1.4,1.5,1.5h0Z"/>
          <path class="cls-4" d="M175.09,48.64c2.05,1.38,4.11,2.75,6.16,4.13.34.23.83.07,1.03-.27.22-.37.07-.8-.27-1.03-2.05-1.38-4.11-2.75-6.16-4.13-.34-.23-.83-.07-1.03.27-.22.37-.07.8.27,1.03h0Z"/>
          <path class="cls-4" d="M179.03,51.05c1.8,1.5,3.26,3.32,4.31,5.42.18.36.69.46,1.03.27.37-.22.45-.66.27-1.03-1.1-2.19-2.66-4.15-4.54-5.72-.31-.26-.76-.3-1.06,0-.27.27-.31.8,0,1.06h0Z"/>
          <path class="cls-4" d="M182.66,54.84c.36.64.68,1.32,1.1,1.93s1.07,1.05,1.86,1.01c1.57-.08,2.42-1.51,2.48-2.95l-1.47.2c.14.4.28.79.42,1.19.11.31.38.55.72.55.32,0,.65-.23.72-.55s.15-.65.23-.98h-1.45c.13.65.27,1.31.4,1.96.08.4.55.63.92.52.41-.11.61-.52.52-.92-.13-.65-.27-1.31-.4-1.96-.15-.73-1.28-.71-1.45,0-.08.33-.15.65-.23.98h1.45c-.14-.4-.28-.79-.42-1.19-.28-.79-1.44-.67-1.47.2,0,.06,0,.13-.01.19,0,.13.02-.1,0,.03-.02.12-.04.23-.08.34-.06.21-.12.34-.24.5.03-.04-.09.1-.09.1-.04.04-.07.07-.11.11.08-.07-.01,0-.05.03-.04.03-.08.05-.13.07-.07.04.07-.01-.05.02-.05.01-.09.03-.14.04-.2.06.06,0-.05.01-.06,0-.12,0-.18,0-.07,0-.09-.01-.01,0-.06-.01-.11-.03-.17-.05-.11-.04.08.05-.01,0-.03-.02-.13-.09-.06-.03-.17-.14-.23-.27-.36-.5-.31-.54-.61-1.08-.91-1.62-.2-.35-.68-.47-1.03-.27s-.47.67-.27,1.03h0Z"/>
          <path class="cls-4" d="M200.14,50.38l-1.04.48c-.09.05-.16.11-.21.19-.07.07-.11.16-.13.26-.03.1-.04.2-.01.3,0,.1.03.19.09.28.1.16.26.3.45.34l.2.03c.14,0,.26-.03.38-.1l1.04-.48c.09-.05.16-.11.21-.19.07-.07.11-.16.13-.26.03-.1.04-.2.01-.3,0-.1-.03-.19-.09-.28-.1-.16-.26-.3-.45-.34l-.2-.03c-.14,0-.26.03-.38.1h0Z"/>
          <path class="cls-4" d="M201.33,50.34h-.03c-.1-.04-.2-.04-.3-.02-.1,0-.19.03-.28.09-.09.05-.16.11-.21.19-.07.07-.11.16-.13.26l-.03.2c0,.14.03.26.1.38l.12.15c.09.09.2.16.33.19h.03c.1.04.2.04.3.02.1,0,.19-.03.28-.09.09-.05.16-.11.21-.19.07-.07.11-.16.13-.26l.03-.2c0-.14-.03-.26-.1-.38l-.12-.15c-.09-.09-.2-.16-.33-.19h0Z"/>
          <path class="cls-4" d="M179.37,54.5c1.59,1.51,2.73,3.42,3.29,5.54.22.85,1.42.62,1.47-.2.06-.91-.53-1.64-1.11-2.27s-1.24-1.24-1.92-1.79c-.31-.25-.75-.31-1.06,0-.28.28-.29.78,0,1.06.79.75,1.93,1.67,3.1,1.48s1.81-1.58.89-2.42c-.52-.47-1.25-.08-1.58.41-.27.4-.31.85-.43,1.3-.02.09-.02.14-.08.16-.14.05-.48-.14-.61-.19-.52-.2-1.04-.41-1.54-.65-1.2-.55-2.35-1.18-3.46-1.88-.82-.52-1.57.78-.76,1.3,1.6,1.01,3.29,1.86,5.04,2.55.82.32,1.77.63,2.46-.12.27-.3.4-.7.47-1.09.03-.14.04-.3.1-.43.02-.04.08-.12.09-.17,0,0-.01.05-.02.05l-.73-.19s0-.12-.01-.13c0,0-.13.03-.16.03-.11,0-.23-.06-.33-.1-.51-.23-.97-.6-1.36-.98l-1.06,1.06c.57.46,1.12.96,1.63,1.49.39.4.99.9.95,1.51l1.47-.2c-.62-2.36-1.9-4.52-3.67-6.2-.7-.66-1.76.39-1.06,1.06h0Z"/>
          <path class="cls-4" d="M177.63,55.24c-2.27-.8-4.65-1.13-7.02-1.5s-4.8-.88-7.11-1.74c-.91-.34-1.3,1.11-.4,1.45,2.31.86,4.68,1.36,7.11,1.74s4.75.7,7.02,1.5c.91.32,1.3-1.13.4-1.45h0Z"/>
          <path class="cls-4" d="M162.44,52.39c.97,0,.97-1.5,0-1.5s-.97,1.5,0,1.5h0Z"/>
          <path class="cls-4" d="M162.43,52.94c4.04,3.19,9.39,3.7,14.29,4.58l.2-1.47c-2.12.19-4.31.57-6.44.39s-4.1-.97-5.97-1.91l-.76,1.3c1.09.52,2.17,1.04,3.26,1.56.87.41,1.63-.88.76-1.3-1.09-.52-2.17-1.04-3.26-1.56-.86-.41-1.62.86-.76,1.3,1.97,1,4.03,1.81,6.23,2.07s4.65-.13,6.93-.34c.77-.07,1.1-1.31.2-1.47-4.57-.82-9.85-1.21-13.63-4.19-.75-.59-1.82.46-1.06,1.06h0Z"/>
          <path class="cls-4" d="M164.69,56.49c3.07,2.1,6.83,2.68,10.49,2.65.97,0,1.95-.05,2.92-.12.8-.05,1.68-.03,2.44-.29,1.74-.59,1.57-2.34.71-3.62-.53-.8-1.83-.05-1.3.76.43.64.78,1.33-.21,1.52-.64.12-1.31.11-1.95.15-1.48.09-2.97.14-4.45.06-2.8-.15-5.55-.81-7.89-2.41-.8-.55-1.55.75-.76,1.3h0Z"/>
          <path class="cls-4" d="M178.89,60.56c-.42.76-.92,1.45-1.52,2.08-.68.7.34,1.69,1.06,1.06,1.27-1.1,2.75-1.93,4.34-2.45l-.4-1.45c-1.73.62-3.39,1.41-4.94,2.4-.76.48-1.48,1.01-2.18,1.57-.37.29-.72.6-1.07.91-.22.2-.71.77-.87.79h.4l-.12-.03.33.19-.09-.08.19.33c.05.15.06-.11.08-.18.04-.13.08-.27.13-.4.08-.27.17-.54.25-.81.29-.92-1.16-1.32-1.45-.4-.18.57-.51,1.23-.52,1.83-.01.69.65,1.16,1.31.97.54-.15.96-.75,1.36-1.11.43-.39.88-.77,1.35-1.13,1.88-1.46,4.01-2.61,6.25-3.41.9-.32.53-1.75-.4-1.45-1.85.6-3.53,1.56-5,2.83l1.06,1.06c.69-.72,1.28-1.52,1.76-2.39s-.83-1.6-1.3-.76h0Z"/>
          <path class="cls-4" d="M173.41,62.82l-4.94,5.47c-.27.3-.3.76,0,1.06.28.28.79.3,1.06,0,1.65-1.82,3.29-3.64,4.94-5.47.27-.3.3-.76,0-1.06-.28-.28-.79-.3-1.06,0h0Z"/>
          <path class="cls-4" d="M166.87,70.84c1.8-.34,3.61-.7,5.26-1.54s2.91-1.99,4.23-3.15c.73-.64-.34-1.7-1.06-1.06-1.23,1.08-2.46,2.16-3.93,2.91s-3.24,1.08-4.9,1.39c-.95.18-.55,1.62.4,1.45h0Z"/>
          <path class="cls-4" d="M175.8,65.36c-.61.64-1.35,1.12-2.19,1.39l.95.72c.1-1.32.74-2.55,1.71-3.44l-1.28-.53c0,.06,0,.13,0,.19-.03.6.65.89,1.13.65,1.59-.81,3.06-1.86,4.36-3.09.7-.67-.36-1.73-1.06-1.06-1.21,1.15-2.57,2.1-4.06,2.86l1.13.65c0-.06,0-.13,0-.19.03-.68-.83-.95-1.28-.53-1.27,1.17-2.02,2.79-2.15,4.5-.04.48.51.87.95.72,1.09-.35,2.06-.95,2.85-1.78.67-.7-.39-1.76-1.06-1.06h0Z"/>
          <path class="cls-4" d="M184.53,61.37c1.11,1.27,2.6,2.25,3.96,3.23,1.43,1.03,2.9,2,4.4,2.91.83.5,1.58-.79.76-1.3-1.46-.89-2.88-1.82-4.27-2.82-1.3-.93-2.72-1.87-3.78-3.08-.64-.73-1.69.34-1.06,1.06h0Z"/>
          <path class="cls-4" d="M188.24,62.24c1.61,1.11,3.22,2.23,4.83,3.34.32.22.85.07,1.03-.27.2-.38.08-.79-.27-1.03-1.61-1.11-3.22-2.23-4.83-3.34-.32-.22-.85-.07-1.03.27-.2.38-.08.79.27,1.03h0Z"/>
          <path class="cls-4" d="M189.57,61.68c1.02,1.06,2.21,1.98,3.49,2.69.34.19.83.09,1.03-.27s.1-.82-.27-1.03c-.3-.17-.59-.34-.88-.53-.15-.1-.29-.2-.44-.3-.07-.05-.14-.1-.21-.16-.03-.02-.06-.05-.09-.07-.02-.01-.15-.11-.06-.05.08.06-.03-.02-.04-.03-.03-.02-.06-.05-.09-.07-.07-.06-.14-.11-.21-.17-.14-.11-.27-.23-.4-.35-.26-.24-.52-.48-.76-.74-.27-.28-.79-.29-1.06,0s-.29.76,0,1.06h0Z"/>
          <path class="cls-4" d="M189.76,61.95c.87,1.12,1.98,2.06,3.22,2.74.34.19.83.1,1.03-.27s.1-.82-.27-1.03c-.29-.16-.58-.34-.85-.52-.13-.09-.26-.2-.4-.29.15.09.05.04,0,0-.03-.03-.07-.05-.1-.08-.07-.05-.13-.11-.2-.17-.51-.44-.97-.92-1.38-1.45-.11-.14-.36-.22-.53-.22-.18,0-.4.08-.53.22s-.23.33-.22.53c0,.21.09.36.22.53h0Z"/>
          <path class="cls-4" d="M192.39,61.18c.38.54.74,1.09,1.05,1.67.15.28.3.57.43.85.07.15.14.31.21.47-.07-.16.04.09.05.12.03.08.06.16.09.24.14.36.51.66.92.52.35-.11.68-.53.52-.92-.51-1.31-1.16-2.56-1.98-3.7-.23-.32-.66-.5-1.03-.27-.32.2-.51.68-.27,1.03h0Z"/>
          <path class="cls-4" d="M193.14,62.73l1.96,4.92c.15.38.5.64.92.52.36-.1.67-.54.52-.92-.65-1.64-1.31-3.28-1.96-4.92-.15-.38-.5-.64-.92-.52-.36.1-.67.54-.52.92h0Z"/>
          <path class="cls-4" d="M194.71,67.29c.79.77,1.73,1.41,2.75,1.84.19.08.37.13.58.08.17-.05.36-.18.45-.34.09-.17.14-.38.08-.58-.06-.17-.17-.37-.34-.45-.47-.2-.93-.44-1.36-.73-.11-.07-.21-.14-.31-.22-.05-.04-.09-.07-.14-.11.03.02.12.1.05.04-.03-.02-.06-.05-.09-.07-.2-.16-.4-.34-.59-.52-.28-.27-.78-.3-1.06,0s-.3.77,0,1.06h0Z"/>
          <path class="cls-4" d="M195.51,66.96c.71,1.05,1.69,1.92,2.86,2.43.19.08.37.13.58.08.17-.05.36-.18.45-.34.09-.17.14-.38.08-.58-.06-.17-.17-.37-.34-.45-.25-.11-.5-.24-.74-.38-.12-.07-.23-.15-.35-.23-.06-.04-.12-.08-.17-.12.04.03.13.1.04.03-.03-.02-.05-.04-.08-.07-.21-.17-.4-.36-.59-.56-.09-.1-.18-.21-.27-.32-.06-.07.1.14.03.04-.02-.03-.04-.06-.06-.08-.04-.06-.09-.12-.13-.19-.22-.32-.67-.5-1.03-.27-.32.21-.5.68-.27,1.03h0Z"/>
          <path class="cls-4" d="M198.02,68.86l1.37.8c.17.1.39.13.58.08.17-.05.36-.18.45-.34.09-.17.14-.38.08-.58s-.17-.35-.34-.45l-1.37-.8c-.17-.1-.39-.13-.58-.08-.17.05-.36.18-.45.34-.09.17-.14.38-.08.58s.17.35.34.45h0Z"/>
          <path class="cls-4" d="M199.17,69.42l.8.35c.09.05.18.08.28.09.1.02.2.02.3-.01.1-.02.18-.07.26-.13.08-.05.15-.12.19-.21.09-.17.14-.38.08-.58l-.08-.18c-.07-.11-.16-.2-.27-.27l-.8-.35c-.09-.05-.18-.08-.28-.09-.1-.02-.2-.02-.3.01-.1.02-.18.07-.26.13-.08.05-.15.12-.19.21-.09.17-.14.38-.08.58l.08.18c.07.11.16.2.27.27h0Z"/>
          <path class="cls-4" d="M194.48,61.96l5.58-.94c.4-.07.62-.56.52-.92-.12-.42-.52-.59-.92-.52l-5.58.94c-.4.07-.62.56-.52.92.12.42.52.59.92.52h0Z"/>
          <path class="cls-4" d="M196.84,61.46c2.37-.09,4.75-.26,6.86-1.44s3.95-2.88,5.66-4.54c.58-.57-.04-1.36-.73-1.25-1.82.29-3.62.66-5.41,1.09-.94.23-.54,1.68.4,1.45,1.79-.44,3.59-.8,5.41-1.09l-.73-1.25c-1.57,1.53-3.26,3.09-5.17,4.2s-4.1,1.26-6.29,1.34c-.96.04-.97,1.54,0,1.5h0Z"/>
          <path class="cls-4" d="M211.84,54.36c-.86.1-1.74.09-2.6-.02l.2.03s-.07,0-.1-.01c-.21-.03-.39-.04-.58.08-.16.09-.3.27-.34.45-.04.19-.03.41.08.58.1.15.26.32.45.34.97.14,1.93.18,2.9.07.21-.02.38-.07.53-.22.13-.13.23-.34.22-.53s-.07-.4-.22-.53c-.14-.13-.34-.24-.53-.22h0Z"/>
          <path class="cls-4" d="M195.23,62.61c.97,0,.97-1.5,0-1.5s-.97,1.5,0,1.5h0Z"/>
          <path class="cls-4" d="M195.25,62.7c.97,0,.97-1.5,0-1.5s-.97,1.5,0,1.5h0Z"/>
          <path class="cls-4" d="M201.98,69.09s-.03,0-.05,0c-.04,0-.03,0,.03,0-.02,0-.06,0-.08-.01-.06,0-.12-.02-.18-.03-.11-.02-.22-.05-.32-.09-.05-.02-.11-.04-.16-.06-.02,0-.07-.04-.09-.04l.05.02s-.03-.01-.04-.02c-.11-.05-.22-.1-.32-.16-.17-.1-.42-.05-.51.13s-.05.41.13.51c.48.28,1,.44,1.54.5.09,0,.2-.05.27-.11.07-.07.11-.17.11-.27s-.04-.2-.11-.27c-.08-.07-.16-.1-.27-.11h0Z"/>
          <path class="cls-4" d="M200.45,69.17c.06.02.11.04.17.06l-.09-.04c.3.13.59.29.88.44.09.05.19.07.29.04.09-.02.18-.09.22-.17.09-.17.05-.42-.13-.51s-.36-.18-.54-.27c-.19-.1-.39-.2-.6-.26-.19-.06-.42.07-.46.26-.05.2.06.4.26.46h0Z"/>
          <path class="cls-4" d="M162.06,51.26c.48,0,.48-.75,0-.75s-.48.75,0,.75h0Z"/>
          <path class="cls-4" d="M162.39,50.47l-.29-.14c-.06-.03-.12-.05-.19-.05-.05,0-.1,0-.14.03-.05.02-.09.04-.12.08-.05.05-.08.1-.1.17-.03.16-.07.32-.1.48-.02.05-.02.1,0,.15,0,.05.02.1.04.14.02.04.06.08.1.11.04.03.08.06.13.07.1.02.2.02.29-.04.08-.05.15-.13.17-.22.03-.16.07-.32.1-.48l-.55.22.29.14s.09.04.14.04c.05.01.1,0,.15,0,.05-.01.09-.03.13-.07.04-.03.07-.06.1-.11.05-.09.07-.19.04-.29-.03-.09-.09-.18-.17-.22h0Z"/>
          <path class="cls-4" d="M162.48,50.47l-.33-.17s-.09-.04-.14-.04c-.05-.01-.1,0-.15,0-.05.01-.09.03-.13.07-.04.03-.07.06-.1.11l-.04.09c-.02.07-.02.13,0,.2l.04.09c.03.06.08.1.13.13l.33.17s.09.04.14.04c.05.01.1,0,.15,0,.05-.01.09-.03.13-.07.04-.03.07-.06.1-.11l.04-.09c.02-.07.02-.13,0-.2l-.04-.09c-.03-.06-.08-.1-.13-.13h0Z"/>
          <path class="cls-4" d="M162.59,50.52l-.16-.11s-.09-.04-.14-.04c-.05-.01-.1,0-.15,0-.05.01-.09.03-.13.07-.04.03-.07.06-.1.11l-.04.09c-.02.07-.02.13,0,.2l.04.09c.03.06.08.1.13.13l.16.11s.09.04.14.04c.05.01.1,0,.15,0,.05-.01.09-.03.13-.07.04-.03.07-.06.1-.11l.04-.09c.02-.07.02-.13,0-.2l-.04-.09c-.03-.06-.08-.1-.13-.13h0Z"/>
          <path class="cls-4" d="M165.3,70.78c.48,0,.48-.75,0-.75s-.48.75,0,.75h0Z"/>
          <path class="cls-4" d="M165.26,69.98s-.07.04-.1.06c-.05.04-.11.08-.16.13s-.09.1-.13.16c-.02.03-.04.07-.05.1-.03.04-.04.09-.04.14-.01.05,0,.1,0,.15.01.05.03.09.07.13.03.04.06.07.11.1l.09.04c.07.02.13.02.2,0l.09-.04c.06-.03.1-.08.13-.13.02-.05.05-.09.08-.13l-.06.08s.07-.08.11-.11l-.08.06s.07-.05.11-.07c.04-.02.08-.06.11-.1.03-.04.06-.08.07-.13.02-.05.02-.1,0-.15,0-.05-.02-.1-.04-.14l-.06-.08s-.1-.08-.17-.1h-.1c-.07-.01-.13,0-.19.04h0Z"/>
          <path class="cls-4" d="M202.53,50.46l-1.63-.2c-.09-.01-.2.05-.27.11-.07.07-.11.17-.11.27,0,.22.17.35.38.38l1.63.2c.09.01.2-.05.27-.11.07-.07.11-.17.11-.27,0-.22-.17-.35-.38-.38h0Z"/>
          <path class="cls-4" d="M202.53,50.45l-1.67-.27c-.19-.03-.41.05-.46.26-.04.18.05.43.26.46l1.67.27c.19.03.41-.05.46-.26.04-.18-.05-.43-.26-.46h0Z"/>
          <path class="cls-4" d="M192.67,41.82c.02.07.04.14.05.21v-.1c0,.11,0,.23-.01.34v-.1c0,.06,0,.12-.03.18-.03.09-.01.21.04.29.05.08.13.15.22.17.1.02.2.02.29-.04s.14-.13.17-.22c.09-.3.09-.63,0-.93-.03-.09-.09-.18-.17-.22s-.2-.07-.29-.04-.18.09-.22.17-.07.19-.04.29h0Z"/>
        </g>
      </g>
    </g>
    <path id="Anse" class="cls-1" d="M146.36,88.92l4.17.15c1.73.06,3.19-1.67,3.27-3.87,1.94-26.52,3.88-53.04,5.83-79.56-.06-.54-.29-2.23-1.42-3.67-.3-.39-1.28-1.54-2.88-1.81-2.41.02-4.82.05-7.22.07-.32-.04-2.62-.3-4.35,1.88-1.11,1.41-1.39,3.07-1.47,3.7.36,26.34.72,52.68,1.09,79.02-.08,2.2,1.26,4.04,2.98,4.1Z"/>
    <path class="cls-2" d="M14.07,84.41h258.16c.93,0,1.68.75,1.68,1.68v4.57c0,.9-.73,1.63-1.63,1.63H13.89c-.89,0-1.62-.73-1.62-1.62v-4.46c0-.99.8-1.8,1.8-1.8Z" transform="translate(3.24 -5.04) rotate(2.04)"/>
    <g id="Terre">
      <path class="cls-4" d="M24.17,155.17c-.58.15-1.14.3-1.68.46-.54.16-1.07.27-1.58.34-1.5.26-2.95.27-4.36.03-1.29-.21-2.29-.84-2.97-1.87-.45-.62-.52-1-.2-1.15.21-.1.41-.11.58-.04.18.07.33.19.46.36.26.3.55.51.86.62.31.11.64.2.99.27.92.19,1.82.23,2.7.14.88-.09,1.76-.28,2.62-.58.32-.11.64-.22.97-.32.32-.1.65-.2.97-.32.44-.09.63-.38.57-.85-.03-.85-.02-1.7.02-2.52.05-.83.07-1.67.08-2.53.04-.3.07-.62.11-.94.03-.32.07-.63.11-.94.04-.57.37-.94.98-1.13,1.48-.37,2.85-.17,4.11.61.48.28.68.7.6,1.27-.1.68-.16,1.38-.16,2.09,0,.71-.02,1.42-.04,2.13.19.05.35.04.47-.03.12-.07.25-.13.4-.19.85-.37,1.71-.67,2.58-.91.87-.24,1.78-.38,2.75-.42.85-.03,1.64.13,2.36.49.72.36,1.37.84,1.97,1.44.18.24.24.42.18.54-.13.17-.31.19-.55.07-.07,0-.13,0-.17-.03-.76-.39-1.52-.56-2.3-.5-.78.06-1.55.17-2.31.34-.84.18-1.66.4-2.46.67-.81.27-1.62.55-2.44.83-.39.16-.58.43-.57.8l.02,2.85c.05,2.79.2,5.57.47,8.31.26,2.75.6,5.5,1.02,8.24.21,1.06.43,2.09.66,3.11.24,1.02.6,2,1.09,2.94.04.03.07.1.08.21.15.28.27.43.36.46.1.03.24-.07.44-.28.4-.35.75-.74,1.03-1.16.28-.43.54-.88.78-1.36,1.13-2.6,1.86-5.32,2.18-8.16.04-.27.09-.53.15-.8.06-.27.11-.54.15-.8.19-.58.49-.83.92-.73.19.05.32.12.39.2.07.09.1.31.11.69.04.63.02,1.26-.05,1.88-.07.62-.16,1.24-.27,1.85-.15,1.18-.37,2.32-.64,3.44-.27,1.12-.62,2.24-1.04,3.38-.43,1.06-1,2.05-1.71,2.95-.61.82-1.39,1.34-2.36,1.55-.96.21-1.9.09-2.82-.35-1.68-.87-2.83-2.24-3.47-4.11-.45-1.25-.85-2.53-1.2-3.83-.35-1.3-.6-2.61-.77-3.94l-.22-1.79c-.07-.57-.09-1.17-.06-1.81,0-.6-.03-1.18-.1-1.75l-.22-1.79c-.06-1.07-.13-2.14-.23-3.19-.09-1.05-.17-2.12-.23-3.19-.02-.18-.04-.38-.04-.58,0-.2-.03-.44-.06-.69Z"/>
      <path class="cls-4" d="M38.09,171.19c-.27-2.21-.1-4.41.53-6.61.27-.85.59-1.67.96-2.44.37-.77.89-1.48,1.56-2.12,1.7-1.67,3.75-2.31,6.14-1.93,1.29.21,2.23.75,2.8,1.61.57.86.86,1.78.87,2.75-.04,2.36-.75,4.48-2.12,6.36-1.22,1.61-2.82,2.53-4.81,2.78-.51.1-.8.18-.86.25-.07.06-.03.35.11.85.21.76.45,1.49.72,2.21.27.71.65,1.37,1.14,1.99.31.41.7.83,1.16,1.26.5.39.95.44,1.36.17.39-.16.74-.33,1.05-.52.31-.19.6-.43.86-.72.46-.47.88-.96,1.25-1.47.37-.51.7-1.07,1-1.66.68-1.43,1.27-2.88,1.76-4.36.49-1.48.86-3.02,1.11-4.62.06-.16.09-.29.12-.41.11-.27.34-.41.68-.42.3.04.48.22.52.55l.07.55c-.2,2.04-.56,3.99-1.1,5.85-.54,1.86-1.31,3.69-2.32,5.49-.18.36-.4.69-.66,1.01-.26.31-.52.62-.78.91-.72.84-1.54,1.37-2.46,1.62-.92.24-1.89.32-2.91.22-1.74-.2-3.16-.78-4.25-1.74-1.09-.97-1.97-2.21-2.64-3.73-.26-.56-.46-1.15-.61-1.74-.15-.6-.23-1.23-.24-1.9ZM42.86,169.93l.03.28c.04.29.09.47.15.51.06.05.23.02.52-.09.68-.2,1.24-.51,1.68-.94,1.07-.99,1.88-2.08,2.42-3.27.54-1.19.82-2.51.83-3.97-.04-.89-.32-1.68-.85-2.36-.36-.48-.78-.54-1.25-.18-.59.37-1.08.9-1.48,1.58-.85,1.3-1.4,2.66-1.65,4.07-.25,1.41-.38,2.87-.39,4.36Z"/>
      <path class="cls-4" d="M61.01,169.88c.13-.46.22-.93.27-1.41.05-.47.09-.95.1-1.44.15-1.21.29-2.41.43-3.58s.33-2.36.6-3.55c.1-.42.21-.84.35-1.25.14-.41.27-.83.41-1.25.35-.79.94-1.18,1.76-1.17,1.41-.02,2.56.6,3.42,1.87.38.63.66,1.27.86,1.94.19.67.32,1.37.37,2.11.06.48.1.95.12,1.41.02.46.04.92.06,1.36.04.29.08.6.14.91.06.31.16.61.31.89.15.28.34.33.58.15.17-.13.35-.26.54-.37.19-.12.37-.28.53-.49.42-.5.83-1.01,1.21-1.52s.68-1.1.9-1.76c.14-.39.38-.57.72-.54.34.03.53.2.56.49.02.74-.09,1.41-.31,2-.35.79-.81,1.48-1.37,2.07-.56.59-1.21,1.1-1.94,1.53-.18.1-.34.16-.51.2s-.34.07-.52.09c-1.63.13-2.97-.23-4.02-1.07-1.06-.84-1.81-1.87-2.26-3.08-.12-.36-.23-.71-.33-1.05-.1-.34-.2-.67-.32-1-.12.54-.21,1.09-.27,1.66-.06.57-.13,1.14-.21,1.71-.14,1.32-.28,2.65-.43,3.97-.15,1.33-.24,2.66-.26,4.01-.01.52-.02,1.06-.03,1.6,0,.54-.02,1.08-.03,1.6,0,.6-.16,1.06-.47,1.37-.32.32-.75.48-1.31.47-1.23,0-2.19-.49-2.87-1.49-.4-.51-.7-1.11-.89-1.79-.61-1.6-1.13-3.21-1.57-4.82-.44-1.61-.73-3.26-.86-4.96-.06-1.11-.13-2.22-.22-3.33s-.06-2.21.07-3.31c.09-.79.27-1.33.56-1.61.28-.28.83-.45,1.64-.51,1.11-.06,2.12.11,3.03.52.6.3.92.82.98,1.56-.02,1.01-.02,2.03.01,3.05.03,1.02.04,2.06.02,3.11.02.78.1,1.56.23,2.32.13.77.21,1.56.24,2.38Z"/>
      <path class="cls-4" d="M80.21,167.5c.13-.46.22-.93.27-1.41.05-.47.09-.95.1-1.44.15-1.21.29-2.41.43-3.58s.33-2.36.6-3.55c.1-.42.21-.84.35-1.25.14-.41.27-.83.41-1.25.35-.79.94-1.18,1.76-1.17,1.41-.02,2.56.6,3.42,1.87.38.63.66,1.27.86,1.94.19.67.32,1.37.37,2.11.06.48.1.95.12,1.41.02.46.04.92.06,1.36.04.29.08.6.14.91.06.31.16.61.31.89.15.28.34.33.58.15.17-.13.35-.26.54-.37.19-.12.37-.28.53-.49.42-.5.83-1.01,1.21-1.52s.68-1.1.9-1.76c.14-.39.38-.57.72-.54.34.03.53.2.56.49.02.74-.09,1.41-.31,2-.35.79-.81,1.48-1.37,2.07-.56.59-1.21,1.1-1.94,1.53-.18.1-.34.16-.51.2s-.34.07-.52.09c-1.63.13-2.97-.23-4.02-1.07-1.06-.84-1.81-1.87-2.26-3.08-.12-.36-.23-.71-.33-1.05-.1-.34-.2-.67-.32-1-.12.54-.21,1.09-.27,1.66-.06.57-.13,1.14-.21,1.71-.14,1.32-.28,2.65-.43,3.97-.15,1.33-.24,2.66-.26,4.01-.01.52-.02,1.06-.03,1.6,0,.54-.02,1.08-.03,1.6,0,.6-.16,1.06-.47,1.37-.32.32-.75.48-1.31.47-1.23,0-2.19-.49-2.87-1.49-.4-.51-.7-1.11-.89-1.79-.61-1.6-1.13-3.21-1.57-4.82-.44-1.61-.73-3.26-.86-4.96-.06-1.11-.13-2.22-.22-3.33s-.06-2.21.07-3.31c.09-.79.27-1.33.56-1.61.28-.28.83-.45,1.64-.51,1.11-.06,2.12.11,3.03.52.6.3.92.82.98,1.56-.02,1.01-.02,2.03.01,3.05.03,1.02.04,2.06.02,3.11.02.78.1,1.56.23,2.32.13.77.21,1.56.24,2.38Z"/>
      <path class="cls-4" d="M93.28,164.38c-.27-2.21-.1-4.41.53-6.61.27-.85.59-1.67.96-2.44.37-.77.89-1.48,1.56-2.12,1.7-1.67,3.75-2.31,6.14-1.93,1.29.21,2.23.75,2.8,1.61.57.86.86,1.78.87,2.75-.04,2.36-.75,4.48-2.12,6.36-1.22,1.61-2.82,2.53-4.81,2.78-.51.1-.8.18-.86.25-.07.06-.03.35.11.85.21.76.45,1.49.72,2.21.27.71.65,1.37,1.14,1.99.31.41.7.83,1.16,1.26.5.39.95.44,1.36.17.39-.16.74-.33,1.05-.52.31-.19.6-.43.86-.72.46-.47.88-.96,1.25-1.47.37-.51.7-1.07,1-1.66.78-1.56,1.4-3.29,1.66-4.06.05-.14.06-.18.1-.3.22-.65,1.22-3.6,2.18-5.45,1.29-2.48,3.27-4.48,3.54-4.3.16.1-.1.96-2.01,4.46-1.16.43-1.55.97-1.69,1.38-.05.15-.07.29-.16,1.54,0,0-1.25,6.66-2.79,9.38-.3.53-.66,1.01-.66,1.01-.26.31-.52.62-.78.91-.72.84-1.54,1.37-2.46,1.62-.92.24-1.89.32-2.91.22-1.74-.2-3.16-.78-4.25-1.74-1.09-.97-1.97-2.21-2.64-3.73-.26-.56-.46-1.15-.61-1.74-.15-.6-.23-1.23-.24-1.9ZM98.05,163.12l.03.28c.04.29.09.47.15.51.06.05.23.02.52-.09.68-.2,1.24-.51,1.68-.94,1.07-.99,1.88-2.08,2.42-3.27.54-1.19.82-2.51.83-3.97-.04-.89-.32-1.68-.85-2.36-.36-.48-.78-.54-1.25-.18-.59.37-1.08.9-1.48,1.58-.85,1.3-1.4,2.66-1.65,4.07-.25,1.41-.38,2.87-.39,4.36Z"/>
    </g>
    <path id="O" class="cls-1" d="M163.82,159.66c1.66-.78,4.65,1.51,4.46,2.01-.08.21-.8.23-3.08-.31.05.02.09.05.14.07-.61.44-1.22.87-1.83,1.31l-.16,1.54c-.72,7.07-3.28,10.47-3.28,10.47-2.67,3.55-6.44,4.66-6.99,4.82-2.49.7-4.65.48-5.89.25-3.28,3.03-7.23,5.05-11.72,5.59-9.43,1.12-22.84-3.74-24.79-20.08-.19-1.62-.3-3.24-.21-4.8-1.82-3.06-2.95-6.39-3.39-10.07-1.65-13.83,9.07-25.48,23.98-27.26,14.9-1.78,24.88,4.77,26.87,21.47,1.29,10.86-1.15,22.44-6.75,30.49.68.05,1.7.04,2.88-.25,4.24-1.07,7.16-6.12,8.21-10.29.69-2.74.37-4.4,1.53-4.94ZM144.14,174.8c3.08-4.14,7.41-11.3,8.57-20.85.48-3.95,1.1-9.67-1.77-15.74-.93-1.97-2.67-5.52-6.61-7.96-3.79-2.35-7.54-2.38-10.06-2.4-1.93-.02-6.2,0-10.81,2.52-1.45.79-4.66,2.6-7.06,6.4-3.22,5.1-2.8,10.37-2.58,12.15,4.01-7.58,11.14-12.71,17.87-13.51.48-.06,5.19-.02,5.97,1.97.16.42.27,1.22.23,1.98-.03.57-.06,1.33-.48,2.01-.67,1.09-1.94,1.41-2.49,1.53-2.13.49-3.44-.52-4.92-.75-4.44-.7-9.23,5.75-11.14,9.25-.93,1.71-2.32,4.81-2.61,9.16,2.54,2.11,5.56,4.32,9.1,6.43,6.97,4.15,13.57,6.47,18.79,7.83ZM139.54,178.99c-2.76-.49-6.13-1.33-9.79-2.83-4.93-2.01-8.72-4.52-11.39-6.61.37,1.75,1.25,4.44,3.48,6.79,0,0,4.94,5.19,13.06,4.2.74-.09,1.43-.26,4.64-1.55ZM152.01,113.66c1.41,2.37,2.24,4.09,1.53,5.35-.31.55-.98,1.12-1.73,1.13-1.05,0-1.83-1.09-4.55-5.7-1.94-3.29-2.07-3.73-2.85-4.09-.92-.43-2-.46-4.26.25-.89.28-1.46.52-2.36.88-4.76,1.91-5.6,2.05-6.33,1.65-.59-.32-1.14-1.02-1.13-1.73.03-1.09,1.4-2.01,5.43-3.61,5.42-2.15,8.13-3.23,9.67-2.75,1.76.54,3.36,3.24,6.56,8.63Z"/>
    <g id="Panier">
      <path class="cls-4" d="M170.36,179.8c-.05.53-.06,1.01-.05,1.43.02.43.01.85-.01,1.26.02,1.68.19,3.32.5,4.92.31,1.6.6,3.23.88,4.87.03.26.07.5.12.74.05.24.09.48.12.74.08.36,0,.76-.24,1.21-.15.28-.33.53-.52.74-.2.21-.48.32-.86.33-.4.05-.8.04-1.18-.02-.38-.07-.74-.26-1.08-.59-.75-.62-1.18-1.42-1.31-2.41s-.26-1.91-.44-2.86c-.17-.95-.32-1.9-.44-2.86-.21-1.73-.44-3.45-.67-5.15-.23-1.71-.43-3.45-.62-5.21-.19-2.14-.41-4.26-.67-6.36-.26-2.1-.45-4.22-.56-6.37,0-.6-.02-1.18-.05-1.76-.03-.57-.01-1.15.07-1.72.03-.34.11-.58.25-.73.13-.15.36-.26.69-.34.51-.14,1-.18,1.5-.13.49.05.96.18,1.39.39.63.26.98.72,1.07,1.38.09.74.15,1.46.18,2.16.03.71.05,1.41.07,2.12.01.41.04.8.09,1.17s.07.76.09,1.17l.17-.02c.02-.11.05-.24.07-.37.02-.13.04-.28.06-.43.14-.95.34-1.88.58-2.79.24-.91.57-1.8.99-2.67.23-.55.49-1.04.77-1.47.28-.43.66-.82,1.14-1.18.58-.44,1.29-.63,2.12-.54,1.18.15,2.19.51,3.04,1.08s1.6,1.3,2.23,2.19c.72,1.03,1.23,2.07,1.5,3.12.09.4.35.55.79.46.51-.14.99-.24,1.44-.32.46-.07.95-.11,1.47-.1.27.04.51.08.74.1.23.03.46.08.69.17.2.09.31.21.32.35.02.18-.07.33-.28.43-.18.1-.35.17-.53.21-.18.04-.36.07-.55.1l-1.46.18c-.46.06-.94.15-1.45.29-.18.06-.32.13-.42.22-.1.09-.12.24-.06.45.08.33.14.66.18,1.01l.13,1.08c.06,1.08.08,2.14.06,3.18-.02,1.05-.17,2.09-.45,3.14-.22.62-.45,1.22-.67,1.79-.23.57-.53,1.12-.92,1.65-.41.61-.94,1.12-1.6,1.54s-1.36.72-2.1.9c-.74.19-1.51.25-2.3.2-.79-.05-1.54-.24-2.25-.56-.32-.15-.61-.35-.89-.62-.28-.26-.57-.56-.87-.9ZM168.93,173.23l2-2.56c.53-.57,1.22-1.2,2.09-1.8.09-.06,1.19-.81,2.17-1.2.8-.32.83-.33.83-.33.29-.11.53-.14.83-.33.17-.1.29-.18.38-.33.07-.12.1-.26.08-.66-.02-.34-.03-.5-.09-.76-.28-1.15-1.13-2.94-1.13-2.94h0s.01.05,0,.06c-.01,0-.35-.82-.9-1.6-.26-.36-.39-.56-.64-.65-.43-.15-.87.1-1.03.19-.73.63-1.11,1.25-1.33,1.71-.17.35-.2.54-.57,1.61-.27.8-.4,1.11-.57,1.61-.98,2.77-1.62,5.6-1.62,5.6-.22,1-.38,1.82-.48,2.37ZM177.62,168.83l-.02-.17c-.04-.33-.1-.51-.18-.54-.08-.03-.26.01-.54.12-.07.05-.15.07-.24.09s-.17.06-.23.14c-2.53,1.54-4.22,3.79-5.05,6.73-.23.89-.21,1.68.04,2.37s.64,1.37,1.17,2.01c.3.34.55.51.74.52.19.01.47-.1.86-.33.83-.51,1.48-1.12,1.93-1.83.45-.71.79-1.51,1.02-2.39.27-1.12.44-2.23.51-3.34.07-1.11.07-2.24,0-3.39Z"/>
      <path class="cls-4" d="M197.43,167.89c-.19.88-.38,1.75-.58,2.59-.19.85-.39,1.69-.58,2.54-.24,1.11-.6,2.24-1.09,3.38-.68,1.47-1.79,2.16-3.33,2.09-1.53-.03-2.83-.58-3.9-1.65-1.34-1.44-2.13-3.06-2.39-4.86-.3-1.79-.43-3.56-.4-5.3.03-1.74.38-3.49,1.06-5.25.14-.39.31-.76.51-1.1.2-.34.43-.68.69-1.01.67-.94,1.47-1.61,2.41-2.01.94-.4,1.97-.61,3.09-.63.63,0,1.26.06,1.87.19.61.13,1.17.44,1.68.94.16-.17.25-.33.25-.48,0-.15.03-.3.08-.46.15-.54.48-.9.97-1.07.53-.18,1.05-.24,1.55-.19.5.05,1.01.19,1.52.43.44.24.68.66.72,1.26-.13,1.69-.17,3.38-.13,5.06.04,1.67.22,3.33.53,4.97.21,1.09.46,2.18.74,3.27.28,1.09.66,2.14,1.12,3.17.17.5.41.9.71,1.2.17-.1.3-.21.38-.35.08-.14.14-.27.2-.39.33-.64.6-1.29.8-1.95.2-.66.37-1.31.51-1.97.3-1.23.58-2.47.86-3.72.27-1.25.48-2.51.62-3.8.05-.19.1-.39.15-.58.05-.19.1-.39.15-.58.08-.27.32-.39.74-.37.3,0,.43.19.41.57.05.44.05.89,0,1.34-.2,1.71-.44,3.41-.71,5.13-.27,1.71-.6,3.43-.99,5.16-.1.39-.21.77-.33,1.16-.12.39-.29.76-.51,1.13-.44.69-1.03,1.06-1.77,1.11-2.02.21-3.61-.52-4.78-2.21-.58-.79-1.05-1.62-1.42-2.51-.37-.89-.68-1.8-.95-2.74-.11-.28-.19-.55-.23-.78-.05-.24-.12-.48-.23-.73ZM192.4,176.47c.28-.15.48-.31.61-.5.13-.18.27-.38.43-.59.38-.57.7-1.15.96-1.74.26-.59.5-1.22.72-1.88.3-.93.53-1.87.72-2.8s.37-1.86.55-2.78c.11-.61.19-1.21.23-1.79.04-.58,0-1.18-.11-1.81-.09-.7-.28-1.33-.57-1.89-.29-.56-.68-1.09-1.15-1.59-.22-.27-.49-.46-.8-.57-.32-.18-.6-.15-.83.1l-.46.39c-.46.5-.83,1.06-1.11,1.68-.28.61-.49,1.25-.63,1.9-.88,3.43-.91,6.85-.08,10.25.27,1.31.78,2.52,1.51,3.62Z"/>
      <path class="cls-4" d="M225.61,172.53c.53-.55.95-1.13,1.27-1.73.32-.6.59-1.23.8-1.89,1.03-2.82,1.79-5.71,2.29-8.68.05-.19.09-.39.12-.6.03-.21.07-.43.11-.66.08-.23.26-.35.52-.34.3.04.47.19.5.44.1.77.1,1.59.02,2.46-.12,1.13-.26,2.26-.42,3.38-.16,1.12-.4,2.22-.71,3.31-.21.73-.41,1.44-.61,2.12-.2.68-.46,1.35-.79,2.03-.15.32-.31.61-.48.87-.17.26-.36.52-.55.77-.61.82-1.42,1.15-2.45.97-1.91-.21-3.32-1.16-4.23-2.84-.63-1.23-1.04-2.46-1.23-3.71-.17-1.06-.28-2.14-.34-3.23-.06-1.09-.12-2.18-.18-3.25-.08-.92-.14-1.85-.2-2.77-.06-.93-.18-1.84-.37-2.75l-.03-.28c-.01-.11-.06-.22-.15-.32-.18.06-.32.15-.41.28-.1.12-.21.25-.35.38-.26.29-.47.61-.61.94-.15.34-.29.68-.43,1.03-.69,1.95-1.21,3.92-1.54,5.9-.33,1.98-.52,4-.57,6.06,0,.56-.03,1.12-.07,1.69-.04.57-.07,1.13-.07,1.69.02.18.03.35.03.5,0,.15.03.31.09.49.12.69-.16,1.1-.86,1.23-.69.12-1.35.04-1.96-.26-.62-.3-1.11-.74-1.48-1.33s-.66-1.21-.87-1.85c-.21-.65-.39-1.3-.55-1.95-.41-1.52-.72-3.05-.93-4.59-.21-1.54-.35-3.09-.43-4.65-.05-.96-.1-1.9-.15-2.81-.06-.91-.11-1.84-.15-2.81-.03-.52.03-.87.18-1.06s.47-.31.99-.37c1.18-.15,2.29.11,3.34.76.52.31.77.76.73,1.37-.1,1.62-.1,3.22,0,4.81.1,1.59.23,3.18.39,4.77l.05.44c.02.15.07.31.17.48.11-.61.2-1.19.26-1.74.06-.55.13-1.11.21-1.68.17-1.03.37-2.06.59-3.1.22-1.04.48-2.05.76-3.06.17-.73.51-1.46,1.01-2.2.75-1.14,1.83-1.61,3.23-1.41,2.09.34,3.53,1.52,4.34,3.55.49,1.25.79,2.44.89,3.59.07,1.19.16,2.37.27,3.55.11,1.18.2,2.36.27,3.55.06,1.37.24,2.68.54,3.91,0,.07.03.16.06.24.03.09.07.21.13.35Z"/>
      <path class="cls-4" d="M242.18,157.05c.3.04.45.19.45.45,0,.26,0,.5,0,.73,0,.22,0,.47-.05.73-.26,1.82-.63,3.6-1.1,5.34-.48,1.74-1.04,3.47-1.68,5.19-.14.39-.31.75-.51,1.07-.2.32-.43.65-.69.98-.65.79-1.52,1.16-2.61,1.11-1.13-.05-2.06-.35-2.8-.91-.74-.56-1.34-1.34-1.8-2.33-.51-1.09-.9-2.3-1.17-3.61-.17-.76-.31-1.52-.42-2.27-.11-.75-.17-1.48-.19-2.19-.14-1.4-.23-2.78-.29-4.14-.06-1.35-.05-2.69,0-4,0-.56.12-.97.35-1.22.23-.25.64-.38,1.24-.38.41.02.82.07,1.22.13.4.06.8.2,1.2.41.64.33.92.84.86,1.52-.09,1.69-.12,3.36-.08,5.02.04,1.66.18,3.31.42,4.96.16.99.33,1.98.51,2.96.18.99.42,1.95.72,2.88.06.18.11.33.14.46.03.13.08.28.14.46.16.35.35.39.57.1.1-.09.2-.19.3-.32.1-.12.18-.23.24-.31.45-.58.82-1.18,1.12-1.82.29-.63.57-1.28.82-1.95.51-1.33.98-2.67,1.41-4.01.43-1.34.77-2.72,1-4.13.03-.08.04-.17.05-.29,0-.11.04-.21.1-.29.08-.23.26-.35.52-.34ZM234.26,146.66c-.03,1.1-.52,2.97-1.9,3.32-1.44.36-3.1-1.12-3.41-2.66-.44-2.18,1.78-4.54,3.33-4.27,1.24.22,2.02,2.12,1.99,3.61Z"/>
      <path class="cls-4" d="M241.25,162.25c-.27-2.21-.1-4.41.53-6.62.27-.85.59-1.67.96-2.44.37-.77.89-1.48,1.56-2.12,1.7-1.67,3.75-2.31,6.14-1.93,1.29.21,2.23.75,2.8,1.61.57.86.86,1.78.87,2.75-.04,2.36-.75,4.48-2.12,6.36-1.22,1.61-2.82,2.53-4.81,2.78-.51.1-.8.18-.87.25-.07.06-.03.35.11.85.21.76.45,1.49.72,2.21.27.71.65,1.37,1.14,1.99.31.41.7.83,1.16,1.26.5.39.95.44,1.36.17.39-.16.74-.33,1.06-.52.31-.19.6-.43.86-.72.46-.47.88-.96,1.25-1.47.37-.51.7-1.07,1-1.66.68-1.43,1.27-2.88,1.76-4.36.49-1.48.86-3.02,1.11-4.62.06-.16.09-.29.12-.41.11-.27.34-.41.68-.42.3.04.48.22.52.55l.07.55c-.2,2.04-.56,3.99-1.1,5.85-.54,1.86-1.31,3.69-2.32,5.49-.18.36-.4.69-.66,1.01-.26.31-.52.62-.78.91-.72.84-1.54,1.37-2.46,1.62-.92.24-1.89.32-2.91.22-1.74-.2-3.16-.78-4.25-1.74-1.09-.97-1.97-2.21-2.65-3.73-.26-.56-.46-1.15-.61-1.74-.15-.6-.23-1.23-.24-1.9ZM246.02,160.99l.03.28c.04.29.09.47.15.51.06.05.23.02.52-.09.68-.2,1.24-.51,1.68-.94,1.07-.99,1.88-2.08,2.42-3.27.54-1.19.82-2.51.83-3.97-.04-.89-.32-1.68-.85-2.36-.36-.48-.78-.54-1.25-.18-.59.37-1.08.9-1.48,1.58-.85,1.3-1.4,2.66-1.65,4.07-.26,1.41-.38,2.87-.39,4.36Z"/>
      <path class="cls-4" d="M263.82,160.98c.13-.46.22-.93.27-1.41.05-.47.09-.95.1-1.44.15-1.21.29-2.41.43-3.58.14-1.17.33-2.36.6-3.55.1-.42.21-.84.35-1.25.14-.41.27-.83.4-1.25.35-.79.94-1.18,1.76-1.17,1.42-.03,2.56.6,3.42,1.87.38.63.66,1.27.86,1.94.19.67.32,1.37.37,2.11.06.48.1.95.12,1.41.02.46.04.92.06,1.36.04.29.08.6.14.91.06.31.16.61.31.89.15.28.34.33.58.15.17-.13.35-.26.54-.37.19-.12.37-.28.53-.49.42-.5.83-1.01,1.21-1.52s.68-1.1.9-1.76c.14-.39.38-.57.72-.54.34.03.53.2.56.49.02.74-.09,1.41-.31,2-.35.79-.81,1.48-1.37,2.07-.56.59-1.21,1.1-1.94,1.53-.17.1-.34.16-.51.2s-.34.07-.52.09c-1.63.13-2.97-.23-4.02-1.07-1.06-.84-1.81-1.87-2.26-3.08-.12-.36-.23-.71-.33-1.05-.1-.34-.21-.67-.32-1-.12.54-.21,1.09-.27,1.66s-.13,1.14-.21,1.71c-.14,1.32-.28,2.65-.43,3.97-.15,1.33-.24,2.66-.26,4.01-.01.52-.02,1.06-.03,1.6,0,.54-.02,1.08-.03,1.6,0,.6-.16,1.06-.47,1.37-.32.32-.75.48-1.31.47-1.23,0-2.19-.49-2.87-1.49-.4-.51-.7-1.11-.89-1.79-.61-1.6-1.13-3.21-1.58-4.82-.44-1.61-.73-3.26-.86-4.96-.06-1.11-.13-2.22-.22-3.33-.08-1.11-.06-2.21.07-3.31.09-.79.27-1.33.56-1.61.28-.28.83-.45,1.65-.51,1.11-.06,2.12.11,3.03.52.6.3.92.82.98,1.56-.02,1.01-.02,2.03.01,3.05.03,1.02.04,2.06.02,3.11.02.78.1,1.56.23,2.32.13.77.21,1.56.24,2.38Z"/>
    </g>
  </g>
</svg>