<svg width="57" height="39" viewBox="0 0 57 39" fill="none" xmlns="http://www.w3.org/2000/svg">
<rect width="57" height="39" rx="4" fill="white"/>
<path d="M32.726 19.7061C32.726 25.9013 27.7505 30.9235 21.613 30.9235C15.4755 30.9235 10.5 25.9013 10.5 19.7061C10.5 13.5109 15.4755 8.48877 21.613 8.48877C27.7505 8.48877 32.726 13.5109 32.726 19.7061Z" fill="#ED0006"/>
<path d="M47.144 19.7061C47.144 25.9013 42.1685 30.9235 36.031 30.9235C29.8934 30.9235 24.918 25.9013 24.918 19.7061C24.918 13.5109 29.8934 8.48877 36.031 8.48877C42.1685 8.48877 47.144 13.5109 47.144 19.7061Z" fill="#0099DF"/>
<path fill-rule="evenodd" clip-rule="evenodd" d="M28.8225 11.1685C31.2119 13.2259 32.727 16.2874 32.727 19.7061C32.727 23.1248 31.2119 26.1862 28.8225 28.2437C26.4331 26.1862 24.918 23.1248 24.918 19.7061C24.918 16.2874 26.4331 13.2259 28.8225 11.1685Z" fill="#6C6BBD"/>
</svg>