<svg width="55" height="38" viewBox="0 0 55 38" fill="none" xmlns="http://www.w3.org/2000/svg">
<rect width="55" height="38" rx="4" fill="white"/>
<path fill-rule="evenodd" clip-rule="evenodd" d="M27.8934 27.165C26.021 28.7931 23.592 29.776 20.9379 29.776C15.0157 29.776 10.2148 24.8826 10.2148 18.8462C10.2148 12.8099 15.0157 7.9165 20.9379 7.9165C23.592 7.9165 26.021 8.89936 27.8934 10.5275C29.7659 8.89936 32.1948 7.9165 34.8489 7.9165C40.7711 7.9165 45.572 12.8099 45.572 18.8462C45.572 24.8826 40.7711 29.776 34.8489 29.776C32.1948 29.776 29.7659 28.7931 27.8934 27.165Z" fill="#ED0006"/>
<path fill-rule="evenodd" clip-rule="evenodd" d="M27.8945 27.165C30.2001 25.1603 31.6621 22.1773 31.6621 18.8462C31.6621 15.5152 30.2001 12.5322 27.8945 10.5275C29.767 8.89936 32.1959 7.9165 34.85 7.9165C40.7722 7.9165 45.5731 12.8099 45.5731 18.8462C45.5731 24.8826 40.7722 29.776 34.85 29.776C32.1959 29.776 29.767 28.7931 27.8945 27.165Z" fill="#F9A000"/>
<path fill-rule="evenodd" clip-rule="evenodd" d="M27.8925 10.5273C30.1981 12.5321 31.66 15.515 31.66 18.8461C31.66 22.1771 30.1981 25.1601 27.8925 27.1648C25.5869 25.1601 24.125 22.1771 24.125 18.8461C24.125 15.515 25.5869 12.5321 27.8925 10.5273Z" fill="#FF5E00"/>
</svg>