<svg width="55" height="38" viewBox="0 0 55 38" fill="none" xmlns="http://www.w3.org/2000/svg">
<rect width="55" height="38" rx="4" fill="white"/>
<path fill-rule="evenodd" clip-rule="evenodd" d="M16.6957 25.7424H13.3638L10.8652 16.1381C10.7466 15.6963 10.4948 15.3057 10.1244 15.1216C9.20009 14.659 8.1815 14.2909 7.07031 14.1052V13.7354H12.4378C13.1786 13.7354 13.7342 14.2909 13.8268 14.936L15.1232 21.8639L18.4535 13.7354H21.6928L16.6957 25.7424ZM23.5448 25.7424H20.3981L22.9892 13.7354H26.1359L23.5448 25.7424ZM30.207 17.0617C30.2996 16.415 30.8552 16.0453 31.5034 16.0453C32.522 15.9524 33.6316 16.1381 34.5576 16.5991L35.1131 14.0139C34.1872 13.6442 33.1686 13.4585 32.2442 13.4585C29.1901 13.4585 26.9677 15.1216 26.9677 17.4299C26.9677 19.1859 28.5419 20.1079 29.6531 20.6633C30.8552 21.2172 31.3182 21.5869 31.2256 22.1408C31.2256 22.9716 30.2996 23.3413 29.3753 23.3413C28.2641 23.3413 27.1529 23.0644 26.1359 22.6018L25.5803 25.1885C26.6915 25.6496 27.8937 25.8352 29.0049 25.8352C32.4294 25.9265 34.5576 24.2649 34.5576 21.771C34.5576 18.6304 30.207 18.4463 30.207 17.0617ZM45.5703 25.7424L43.0718 13.7354H40.388C39.8324 13.7354 39.2768 14.1052 39.0916 14.659L34.4649 25.7424H37.7043L38.3508 23.988H42.331L42.7014 25.7424H45.5703ZM40.851 16.9689L41.7754 21.4941H39.1842L40.851 16.9689Z" fill="#172B85"/>
</svg>